# xmcd
#
# Track frame offsets: 
#        150
#        57977
#        124720
#        171030
#        223507
#        270385
#
# Disc length: 4097 seconds
#
# Revision: 0
# Processed by: cddbd v1.5.2PL0 Copyright (c) Steve Scherf et al.
# Submitted via: ExactAudioCopy v0.99pb4
#
DISCID=4f0fff06
DTITLE=Ed Paolantonio - Dad's Blues
DYEAR=1998
DGENRE=Blues
TTITLE0=Dad's Blues
TTITLE1=How Deep is the Ocean
TTITLE2=Karen is Out
TTITLE3=Lush Life
TTITLE4=My Melancholy Bab
TTITLE5=Brotherly Love
EXTD=
EXTT0=
EXTT1=
EXTT2=
EXTT3=
EXTT4=
EXTT5=
PLAYORDER=
